<?xml version="1.0" encoding="UTF-8"?>
<svg id="Layer_1" data-name="Layer 1" xmlns="http://www.w3.org/2000/svg" xmlns:xlink="http://www.w3.org/1999/xlink" viewBox="0 0 2099.84 410.36">
  <defs>
    <style>
      .cls-1 {
        fill: url(#linear-gradient);
      }

      .cls-1, .cls-2 {
        stroke-width: 0px;
      }

      .cls-2 {
        fill: #fff;
      }
    </style>
    <linearGradient id="linear-gradient" x1="1865.92" y1="305.01" x2="2041.91" y2=".18" gradientUnits="userSpaceOnUse">
      <stop offset="0" stop-color="#eee36d"/>
      <stop offset="1" stop-color="#0db3b9"/>
    </linearGradient>
  </defs>
  <g>
    <path class="cls-1" d="M2036.02,19.7c28,0,50.78,22.78,50.78,50.78v164.22c0,28-22.78,50.78-50.78,50.78h-164.22c-28,0-50.78-22.78-50.78-50.78V70.49c0-28,22.78-50.78,50.78-50.78h164.22M2036.02,6.67h-164.22c-35.24,0-63.82,28.57-63.82,63.82v164.22c0,35.24,28.57,63.82,63.82,63.82h164.22c35.24,0,63.82-28.57,63.82-63.82V70.49c0-35.24-28.57-63.82-63.82-63.82h0Z"/>
    <g>
      <path class="cls-2" d="M0,152.59C0,62.95,68.79,0,162.6,0c57.12,0,102.14,20.84,130.92,58.37l-62.12,55.45c-17.09-21.68-37.52-34.18-63.79-34.18-40.85,0-68.37,28.35-68.37,72.96s27.52,72.97,68.37,72.97c26.27,0,46.7-12.51,63.79-34.19l62.12,55.45c-28.77,37.52-73.79,58.37-130.92,58.37C68.79,305.19,0,242.23,0,152.59Z"/>
      <path class="cls-2" d="M406.28,225.14h-26.68v73.38h-98.4V6.67h140.51c81.31,0,133.01,42.53,133.01,110.07,0,42.11-20.02,73.8-55.03,91.72l61.28,90.06h-105.07l-49.61-73.38ZM415.45,82.55h-35.85v68.38h35.85c27.11,0,40.03-12.92,40.03-34.19s-12.92-34.18-40.03-34.18Z"/>
      <path class="cls-2" d="M788.94,224.3v74.22h-242.65V6.67h237.24v74.22h-140.51v34.18h123.41v70.88h-123.41v38.35h145.92Z"/>
      <path class="cls-2" d="M968.84,247.65h-110.9l-19.59,50.87h-100.07L865.87,6.67h96.73l127.57,291.85h-101.72l-19.6-50.87ZM941.75,176.78l-28.35-73.38-28.35,73.38h56.7Z"/>
      <path class="cls-2" d="M1086.52,82.97h-85.47V6.67h269.33v76.3h-85.47v215.55h-98.39V82.97Z"/>
      <path class="cls-2" d="M1223.06,152.59c0-88.39,69.63-152.59,164.69-152.59s164.68,64.2,164.68,152.59-69.63,152.59-164.68,152.59-164.69-64.2-164.69-152.59ZM1453.21,152.59c0-45.44-29.19-72.96-65.46-72.96s-65.46,27.52-65.46,72.96,29.18,72.97,65.46,72.97,65.46-27.52,65.46-72.97Z"/>
      <path class="cls-2" d="M1667.85,225.14h-26.68v73.38h-98.4V6.67h140.51c81.31,0,133.01,42.53,133.01,110.07,0,42.11-20.02,73.8-55.03,91.72l61.28,90.06h-105.07l-49.61-73.38ZM1677.01,82.55h-35.85v68.38h35.85c27.11,0,40.03-12.92,40.03-34.19s-12.92-34.18-40.03-34.18Z"/>
    </g>
  </g>
  <path class="cls-2" d="M1972.62,179.57h18.71c14.9,0,26.98-12.08,26.98-26.98,0-14.9-12.08-26.98-26.98-26.98h-18.71c-4.26,0-7.71-3.45-7.71-7.71,0-4.26,3.45-7.71,7.71-7.71h18.71c23.41,0,42.39,18.98,42.39,42.39,0,23.41-18.98,42.39-42.39,42.39h-18.71c-4.26,0-7.71-3.45-7.71-7.71,0-4.26,3.45-7.71,7.71-7.71ZM1916.5,110.21c-23.41,0-42.39,18.98-42.39,42.39,0,23.41,18.98,42.39,42.39,42.39h18.71c4.26,0,7.71-3.45,7.71-7.71,0-4.26-3.45-7.71-7.71-7.71h-18.71c-14.9,0-26.98-12.08-26.98-26.98,0-14.9,12.08-26.98,26.98-26.98h18.71c4.26,0,7.71-3.45,7.71-7.71,0-4.26-3.45-7.71-7.71-7.71h-18.71ZM1935.21,160.3h37.41c4.26,0,7.71-3.45,7.71-7.71,0-4.26-3.45-7.71-7.71-7.71h-37.41c-4.26,0-7.71,3.45-7.71,7.71,0,4.26,3.45,7.71,7.71,7.71Z"/>
  <g>
    <path class="cls-2" d="M1426.47,376.42c0-19.86,15.2-33.94,35.89-33.94,12.03,0,21.72,4.38,28.06,12.31l-11.75,10.63c-4.1-4.94-9.14-7.65-15.38-7.65-10.72,0-18.18,7.46-18.18,18.65s7.46,18.65,18.18,18.65c6.25,0,11.28-2.7,15.38-7.65l11.75,10.63c-6.34,7.92-16.04,12.31-28.06,12.31-20.7,0-35.89-14.08-35.89-33.94Z"/>
    <path class="cls-2" d="M1493.88,376.42c0-19.58,15.38-33.94,36.27-33.94s36.27,14.36,36.27,33.94-15.38,33.94-36.27,33.94-36.27-14.36-36.27-33.94ZM1547.76,376.42c0-11.28-7.74-18.65-17.62-18.65s-17.62,7.37-17.62,18.65,7.74,18.65,17.62,18.65,17.62-7.37,17.62-18.65Z"/>
    <path class="cls-2" d="M1638.2,343.79v65.26h-15.2l-28.81-34.78v34.78h-18.09v-65.26h15.2l28.81,34.78v-34.78h18.09Z"/>
    <path class="cls-2" d="M1717.26,343.79l-27.97,65.26h-18.18l-27.88-65.26h19.95l17.71,42.51,18.09-42.51h18.27Z"/>
    <path class="cls-2" d="M1773.48,394.79v14.26h-52.4v-65.26h51.18v14.26h-32.91v11h28.99v13.8h-28.99v11.93h34.12Z"/>
    <path class="cls-2" d="M1845.82,343.79v65.26h-15.2l-28.81-34.78v34.78h-18.09v-65.26h15.2l28.81,34.78v-34.78h18.09Z"/>
    <path class="cls-2" d="M1872.77,358.43h-20.04v-14.64h58.46v14.64h-19.95v50.62h-18.46v-50.62Z"/>
    <path class="cls-2" d="M1918.08,343.79h18.46v65.26h-18.46v-65.26Z"/>
    <path class="cls-2" d="M1946.32,376.42c0-19.58,15.38-33.94,36.27-33.94s36.27,14.36,36.27,33.94-15.38,33.94-36.27,33.94-36.27-14.36-36.27-33.94ZM2000.21,376.42c0-11.28-7.74-18.65-17.62-18.65s-17.62,7.37-17.62,18.65,7.74,18.65,17.62,18.65,17.62-7.37,17.62-18.65Z"/>
    <path class="cls-2" d="M2090.65,343.79v65.26h-15.2l-28.81-34.78v34.78h-18.09v-65.26h15.2l28.81,34.78v-34.78h18.09Z"/>
  </g>
</svg>