<?xml version="1.0" encoding="UTF-8"?>
<svg id="Layer_1" data-name="Layer 1" xmlns="http://www.w3.org/2000/svg" xmlns:xlink="http://www.w3.org/1999/xlink" viewBox="0 0 822.07 137.66">
  <defs>
    <style>
      .cls-1 {
        fill: url(#linear-gradient);
        stroke-width: 0px;
      }
    </style>
    <linearGradient id="linear-gradient" x1="0" y1="68.83" x2="822.07" y2="68.83" gradientUnits="userSpaceOnUse">
      <stop offset=".06" stop-color="#eee36d"/>
      <stop offset=".07" stop-color="#e6e16f"/>
      <stop offset=".2" stop-color="#a5d385"/>
      <stop offset=".33" stop-color="#6ec797"/>
      <stop offset=".44" stop-color="#44bea6"/>
      <stop offset=".55" stop-color="#26b8b0"/>
      <stop offset=".64" stop-color="#13b4b6"/>
      <stop offset=".7" stop-color="#0db3b9"/>
    </linearGradient>
  </defs>
  <path class="cls-1" d="M794.43,94.03c15.8-8.09,24.82-22.38,24.82-41.37,0-30.47-23.32-49.65-59.99-49.65h-63.38v41.26c-10.03-26.66-36.49-44.27-69.92-44.27-21.29,0-39.75,7.15-52.94,19.22V3.01h-121.49v34.42h38.55v93.46L434.19,3.01h-43.63l-42.91,98.17h-57.6v-17.3h55.67v-31.97h-55.67v-15.42h63.38V3.01h-107.01v30.03c-8-18.84-28.2-30.03-56.19-30.03h-63.38v17C113.92,7.08,95.69,0,73.34,0,31.03,0,0,28.4,0,68.83s31.03,68.83,73.34,68.83c22.35,0,40.58-7.08,53.5-20v17h44.38v-33.1h12.04l22.38,33.1h172.51l8.84-22.94h50.02l8.84,22.94h88.62V37.42h24.62c-4.77,9.27-7.41,19.88-7.41,31.41,0,39.87,31.41,68.83,74.29,68.83,33.43,0,59.89-17.61,69.92-44.27v41.26h44.38v-33.1h12.04l22.38,33.1h47.39l-27.64-40.62ZM104.37,86.32c-7.71,9.78-16.92,15.42-28.77,15.42-18.43,0-30.84-12.79-30.84-32.91s12.41-32.91,30.84-32.91c11.85,0,21.06,5.64,28.77,15.42l22.47-20.05v75.08l-22.47-20.05ZM187.39,68.08h-16.17v-30.84h16.17c12.23,0,18.06,5.83,18.06,15.42s-5.83,15.42-18.06,15.42ZM225.39,94.03c9.79-5.01,16.97-12.41,21.02-21.83v52.73l-21.02-30.9ZM399.21,79.74l12.79-33.1,12.79,33.1h-25.58ZM625.96,101.74c-16.36,0-29.53-12.41-29.53-32.91s13.16-32.91,29.53-32.91,29.53,12.41,29.53,32.91-13.17,32.91-29.53,32.91ZM756.44,68.08h-16.17v-30.84h16.17c12.23,0,18.06,5.83,18.06,15.42s-5.83,15.42-18.06,15.42Z"/>
</svg>