<?xml version="1.0" encoding="UTF-8"?>
<svg id="Layer_1" data-name="Layer 1" xmlns="http://www.w3.org/2000/svg" xmlns:xlink="http://www.w3.org/1999/xlink" viewBox="0 0 584.49 584.49">
  <defs>
    <style>
      .cls-1 {
        fill: #fff;
        stroke-width: 0px;
      }

      .cls-2 {
        fill: #1c1c1c;
        stroke: url(#linear-gradient);
        stroke-miterlimit: 10;
        stroke-width: 11px;
      }
    </style>
    <linearGradient id="linear-gradient" x1="116.58" y1="596.5" x2="467.91" y2="-12.01" gradientUnits="userSpaceOnUse">
      <stop offset="0" stop-color="#eee36d"/>
      <stop offset="1" stop-color="#0db3b9"/>
    </linearGradient>
  </defs>
  <rect class="cls-2" x="5.5" y="5.5" width="573.49" height="573.49" rx="125.4" ry="125.4"/>
  <path class="cls-1" d="M336.54,356.13h44.3c35.28,0,63.88-28.6,63.88-63.88,0-35.28-28.6-63.88-63.88-63.88h-44.3c-10.08,0-18.25-8.17-18.25-18.25,0-10.08,8.17-18.25,18.25-18.25h44.3c55.44,0,100.39,44.95,100.39,100.39,0,55.44-44.95,100.39-100.39,100.39h-44.3c-10.08,0-18.25-8.17-18.25-18.25,0-10.08,8.17-18.25,18.25-18.25ZM203.64,191.86c-55.44,0-100.39,44.94-100.39,100.39,0,55.44,44.95,100.39,100.39,100.39h44.3c10.08,0,18.25-8.17,18.25-18.25,0-10.08-8.17-18.25-18.25-18.25h-44.3c-35.28,0-63.88-28.6-63.88-63.88,0-35.28,28.6-63.88,63.88-63.88h44.3c10.08,0,18.25-8.17,18.25-18.25,0-10.08-8.17-18.25-18.25-18.25h-44.3ZM247.94,310.5h88.6c10.08,0,18.25-8.17,18.25-18.25,0-10.08-8.17-18.25-18.25-18.25h-88.6c-10.08,0-18.25,8.17-18.25,18.25,0,10.08,8.17,18.25,18.25,18.25Z"/>
</svg>