<?xml version="1.0" encoding="UTF-8"?>
<svg id="Layer_1" data-name="Layer 1" xmlns="http://www.w3.org/2000/svg" xmlns:xlink="http://www.w3.org/1999/xlink" viewBox="0 0 1066.18 1066.18">
  <defs>
    <style>
      .cls-1 {
        fill: url(#linear-gradient);
      }

      .cls-1, .cls-2, .cls-3 {
        stroke-width: 0px;
      }

      .cls-2 {
        fill: #000;
      }

      .cls-3 {
        fill: #fff;
      }
    </style>
    <linearGradient id="linear-gradient" x1="188.29" y1="1130.3" x2="877.89" y2="-64.12" gradientUnits="userSpaceOnUse">
      <stop offset="0" stop-color="#eee36d"/>
      <stop offset=".06" stop-color="#e8e16e"/>
      <stop offset=".13" stop-color="#d8de74"/>
      <stop offset=".21" stop-color="#bdd87d"/>
      <stop offset=".3" stop-color="#99d089"/>
      <stop offset=".4" stop-color="#69c699"/>
      <stop offset=".5" stop-color="#30baac"/>
      <stop offset=".55" stop-color="#0db3b9"/>
      <stop offset="1" stop-color="#0db3b9"/>
    </linearGradient>
  </defs>
  <rect class="cls-1" x="2.1" y="2.1" width="1061.97" height="1061.97" rx="97.69" ry="97.69"/>
  <path class="cls-3" d="M968.1,20c43.05,0,78.07,35.02,78.07,78.07v870.03c0,43.05-35.02,78.07-78.07,78.07H98.07c-43.05,0-78.07-35.02-78.07-78.07V98.07c0-43.05,35.02-78.07,78.07-78.07h870.03M968.1,0H98.07C43.91,0,0,43.91,0,98.07v870.03c0,54.16,43.91,98.07,98.07,98.07h870.03c54.16,0,98.07-43.91,98.07-98.07V98.07c0-54.16-43.91-98.07-98.07-98.07h0Z"/>
  <path class="cls-2" d="M533.18,820.31c-36.76,50.44-89.23,57.16-127.84,43.28-20.6-7.41-37.06-20.12-50.5-37.3-3.47-4.44-8.21-8.56-13.26-10.98-41.52-19.89-62.6-52.89-65.44-98.54-.33-5.32-3.62-11.98-7.73-15.3-36.84-29.74-47.67-77.17-27.47-120.6,2.05-4.4,1.9-11.36-.1-15.85-16.12-36.16-13.03-70.06,9.85-102.4,2.65-3.74,5.05-9.04,4.65-13.35-5.29-57.03,13.97-89.3,68.74-112.99-.22-2.95-.28-6.23-.73-9.46-3.79-26.98,3.46-51.4,25.42-66.82,28.31-19.87,58.95-36.55,89.35-53.21,9.74-5.34,21.77-6.89,32.96-9.13,23.14-4.64,43.83.65,61.9,18.02,31.09-29.33,66.34-22.64,99.49-6.99,30.08,14.2,58.78,32.19,85.85,51.63,21.31,15.32,28.53,39.35,25,65.84-.44,3.28-.7,6.58-.75,7.05,15.43,10.65,30.78,18.54,42.67,30.03,22.38,21.62,30.98,49.24,26.33,80.28-1.2,8.05.19,14.09,5.12,20.96,22.49,31.31,25.23,65.02,8.79,99.83-3.05,6.47-3.11,11.03,0,17.42,20.82,42.74,9.3,90.33-27.91,120.19-3.84,3.08-6.9,9.34-7.18,14.3-2.63,46.22-23.91,79.56-66.13,99.29-4.01,1.87-8.01,4.81-10.72,8.27-48.09,61.53-127.89,62.04-176.4.97-1-1.26-2.14-2.42-3.95-4.45ZM268.16,602.3c-13.05,27.9-1.12,62.05,30.14,79.11,10.19,5.56,13.59,12.21,11.8,23.64-5.5,35.09,14.62,68.23,47.29,81.79,7.94,3.29,15.94,9.44,20.87,16.42,18.84,26.64,49.71,39.42,81.35,31.99,30.09-7.07,53.18-32.82,56.58-64.82,1.52-14.3.95-28.85.95-43.29.06-108.38.08-216.77,0-325.15-.02-22.51-8.71-32.93-29.26-36-11.64-1.74-17.77-8.49-16.15-18.49,1.78-10.93,9.51-14.84,19.47-13.79,8.25.88,16.33,3.36,25.34,5.31,0-28.73.98-57.11-.38-85.37-.76-15.82-15.14-26.06-31.6-24.95-20.49,1.37-39.39,8.11-58.09,19.02,3.4,2.27,6.23,3.49,8.16,5.55,9.18,9.77,19.16,19.04,26.8,29.93,5.64,8.03,2.06,16.7-6.68,21.5-8.42,4.62-15.6,1.69-21.08-5.75-2.26-3.07-3.93-6.59-6.34-9.52-11.9-14.51-31.51-18.97-48.36-11.19-16.31,7.53-26.37,25.62-23.72,42.66,1.26,8.13,4.15,13.12,13.9,14.96,42.58,8.05,74.25,44.41,77.12,86.83.99,14.63-4.29,22.69-15.23,23.28-10.44.57-15.92-6.15-17.3-20.41-2.52-25.99-15.74-44.71-39.83-54.61-24.25-9.97-47.05-5.65-66.35,11.81-19.27,17.44-26.2,39.7-18.5,64.79,3.72,12.11,2.14,20.35-7,29.52-18.73,18.78-23.95,41.85-14.39,66.89,9.5,24.88,28.43,38.48,54.86,41.32,14.99,1.61,22.04,7.56,20.72,18.27-1.3,10.58-10.13,16.87-24.28,13.86-16.76-3.56-32.98-9.68-50.81-15.1ZM798.6,602.69c-18.74,5.35-35.85,11.39-53.47,14.87-12.89,2.55-21.45-4.78-21.96-15.19-.48-9.82,6.43-15.81,19.5-17,27.62-2.51,47.16-16.5,56.62-42.52,9.34-25.71,2.93-48.73-16.45-67.6-7.81-7.61-9.33-15.03-6.06-25.13,8.26-25.46,2.53-48.15-16.84-66.4-18.95-17.86-41.61-22.77-66.06-13.22-25.28,9.87-38.87,29.15-41.14,56.29-1.1,13.08-7.08,19.73-17.19,19.22-10.59-.54-16.03-8.34-15.36-21.98,2.12-42.71,34.14-79.98,77.15-88.16,9.7-1.85,12.71-6.73,13.96-14.92,2.76-17.96-8.55-37.02-26-43.75-18.95-7.31-38.21-.26-50.45,18.45-7.21,11.02-15.58,13.99-24.21,8.58-8.45-5.3-10.8-15.55-3.23-25.51,8.81-11.58,19.72-21.56,31.33-33.95-15.07-4.78-30.67-11.18-46.89-14.54-27.78-5.75-42.37,6.94-42.45,35.01-.11,36.13-.05,72.26,0,108.39,0,3.65.49,7.3.74,10.82,10.02-1.83,19.02-4.43,28.12-4.89,9.8-.49,16.14,5.23,16.64,15.39.46,9.49-4.78,14.93-14.02,16.72-25.01,4.85-31.43,12.45-31.46,37.71-.09,73.96-.1,147.92-.07,221.88,0,3.5.59,7,.76,8.89,15.9-7.56,30.79-15.53,46.38-21.72,9.26-3.68,16.94,1.3,19.92,10.71,2.83,8.96-1.15,15.74-9.65,19.64-2.3,1.06-4.82,1.62-7.21,2.51-30.97,11.53-51.16,40.88-50.06,72.73,1.15,32.99,23.49,61.76,54.86,70.64,32.14,9.1,65.12-4.07,84.52-32.39,4.39-6.4,11.73-12.12,18.96-15,32.69-13.02,53.96-45.61,48.87-79.56-2.03-13.55,1.6-21.08,13.6-27.64,29.49-16.15,40.7-50.58,28.31-77.36ZM352.33,549.24c-13.06,1.56-19.15,7.69-18.14,17.93,1,10.18,8.85,15.55,21.51,14.21,30.66-3.26,52.05-19.16,63.14-47.98,2.68-6.97,6.45-9.86,13.51-12.7,13.93-5.61,27.4-13.08,39.76-21.65,10.25-7.11,11.09-17.81,4.69-25.32-6.58-7.73-15.97-7.61-25.56.79-20.03,17.56-42.86,22.53-67.41,12.67-25.03-10.05-38.38-29.6-40.23-56.85-.85-12.55-7.93-19.6-18.04-18.19-11.62,1.61-15.05,9.56-14.33,20.23,2.59,38.58,21.64,66.15,56.01,83.23,6.31,3.14,13.21,5.09,20.57,7.87-7.18,16.01-19.13,23.82-35.48,25.77ZM349.54,692.29c1.16,13.51,10.93,14.81,21.94,15.78,31.77,2.79,54.85,27.49,57.55,61.07.87,10.83,5.16,18.04,16.75,18.32,10.35.25,16.57-7.45,15.83-20.13-1.94-33.22-16.52-60.03-45.17-76.8-12.29-7.19-13.15-15.06-9.87-25.91,1.94-6.44,4.42-12.98,8.02-18.61,12.31-19.26,30.4-28.3,53.09-30.5,5.75-.56,13.11-6.37,15.57-11.69,1.83-3.96-1.54-12.66-5.38-16.23-3.6-3.34-10.99-4.07-16.53-3.64-47.69,3.68-80.24,36.29-89.81,90.07-16.51,2.73-22.87,7.87-21.98,18.26ZM668.45,520.9c36.7-13.13,62.6-47.8,63.94-85.55.48-13.38-4.39-20.47-14.57-21.25-10.29-.78-16.36,5.57-17.88,18.46-.59,5.04-.96,10.2-2.37,15.04-13.26,45.65-67.05,60.74-104.39,29.39-9.89-8.3-19.22-9.04-25.84-2.06-7.03,7.42-6.12,18.69,4.52,26.26,11.57,8.23,24.24,15.43,37.37,20.77,7.99,3.25,12.83,6.4,16.2,14.85,11.01,27.52,31.85,43.26,61.59,46.27,13.98,1.42,21.61-3.82,22.41-14.46.76-10.16-5.04-15.9-18.63-17.58-16-1.97-27.64-9.7-35.26-25.88,4.91-1.62,8.94-2.85,12.91-4.27ZM645.25,602.72c-10.13-3.69-21.51-4.81-32.39-5.28-9.17-.4-15.15,5.69-15.45,15.16-.29,9.35,4.85,15.07,14.25,16.5,5.03.76,10.17.93,15.15,1.91,25.16,4.97,45.83,27.12,49.66,52.07,1.39,9.03-.57,14.39-9.13,19.41-29.18,17.1-44.61,43.41-47.11,77.08-.95,12.75,4.79,20.63,14.6,21.65,10.23,1.06,16.87-6.28,17.95-19.92,1.99-25.03,14.29-43.41,36.86-53.91,8.23-3.83,17.86-4.99,27-6.41,9.24-1.44,15.11-5.71,15.64-15.27.53-9.56-4.76-14.98-13.88-16.88-2.46-.51-4.98-.76-8.27-1.24-5.4-41.6-26.01-70.68-64.88-84.84Z"/>
</svg>