<?xml version="1.0" encoding="UTF-8"?>
<svg id="Layer_3" data-name="Layer 3" xmlns="http://www.w3.org/2000/svg" xmlns:xlink="http://www.w3.org/1999/xlink" viewBox="0 0 1066.18 1066.18">
  <defs>
    <style>
      .cls-1 {
        fill: url(#linear-gradient);
      }

      .cls-1, .cls-2, .cls-3 {
        stroke-width: 0px;
      }

      .cls-2 {
        fill: #fff;
      }

      .cls-3 {
        fill: #1f1f1f;
      }
    </style>
    <linearGradient id="linear-gradient" x1="533.09" y1="5.26" x2="533.09" y2="1060.92" gradientUnits="userSpaceOnUse">
      <stop offset="0" stop-color="#0cebc3"/>
      <stop offset="1" stop-color="#b810df"/>
    </linearGradient>
  </defs>
  <rect class="cls-1" x="5.26" y="5.26" width="1055.66" height="1055.66" rx="97.11" ry="97.11"/>
  <path class="cls-2" d="M968.1,20c43.05,0,78.07,35.02,78.07,78.07v870.03c0,43.05-35.02,78.07-78.07,78.07H98.07c-43.05,0-78.07-35.02-78.07-78.07V98.07c0-43.05,35.02-78.07,78.07-78.07h870.03M968.1,0H98.07C43.91,0,0,43.91,0,98.07v870.03c0,54.16,43.91,98.07,98.07,98.07h870.03c54.16,0,98.07-43.91,98.07-98.07V98.07c0-54.16-43.91-98.07-98.07-98.07h0Z"/>
  <path class="cls-3" d="M312.21,862.71c-16.14,0-32.29-4.06-47.24-12.19-37.42-20.38-60.66-61.94-60.66-108.48v-238.48c0-16.53,13.4-29.93,29.93-29.93s29.93,13.4,29.93,29.93v238.48c0,29.41,15.2,48.15,29.42,55.89,7.6,4.12,22.95,9.38,40.25-1.78l323-208.54c16.52-10.7,26.4-30.93,26.4-54.12s-9.88-43.41-26.43-54.09l-322.96-208.56c-17.31-11.15-32.67-5.92-40.28-1.77-14.22,7.75-29.41,26.48-29.41,55.88v58.89c0,16.53-13.4,29.93-29.93,29.93s-29.93-13.4-29.93-29.93v-58.89c0-46.52,23.24-88.08,60.64-108.45,32.27-17.61,70.2-16.08,101.39,4.05l322.96,208.57c33.71,21.75,53.82,60.77,53.82,104.37s-20.11,82.63-53.79,104.4l-322.99,208.54c-16.74,10.82-35.43,16.28-54.14,16.28ZM862.86,743.03v-89.8c0-16.55-13.39-29.93-29.93-29.93s-29.93,13.39-29.93,29.93v89.8c0,16.55,13.39,29.93,29.93,29.93s29.93-13.39,29.93-29.93ZM862.86,533.49v-209.54c0-16.53-13.39-29.93-29.93-29.93s-29.93,13.4-29.93,29.93v209.54c0,16.53,13.39,29.93,29.93,29.93s29.93-13.4,29.93-29.93Z"/>
</svg>