<?xml version="1.0" encoding="UTF-8"?>
<svg id="Layer_2" data-name="Layer 2" xmlns="http://www.w3.org/2000/svg" xmlns:xlink="http://www.w3.org/1999/xlink" viewBox="0 0 1066.18 1066.18">
  <defs>
    <style>
      .cls-1 {
        fill: url(#linear-gradient);
      }

      .cls-1, .cls-2, .cls-3 {
        stroke-width: 0px;
      }

      .cls-2 {
        fill: #fff;
      }

      .cls-3 {
        fill: #1f1f1f;
      }
    </style>
    <linearGradient id="linear-gradient" x1="874.47" y1="-58.21" x2="191.7" y2="1124.39" gradientUnits="userSpaceOnUse">
      <stop offset="0" stop-color="#f01dbf"/>
      <stop offset="1" stop-color="#feb568"/>
    </linearGradient>
  </defs>
  <rect class="cls-1" x="7.36" y="7.36" width="1051.46" height="1051.46" rx="96.72" ry="96.72"/>
  <path class="cls-2" d="M968.1,20c43.05,0,78.07,35.02,78.07,78.07v870.03c0,43.05-35.02,78.07-78.07,78.07H98.07c-43.05,0-78.07-35.02-78.07-78.07V98.07c0-43.05,35.02-78.07,78.07-78.07h870.03M968.1,0H98.07C43.91,0,0,43.91,0,98.07v870.03c0,54.16,43.91,98.07,98.07,98.07h870.03c54.16,0,98.07-43.91,98.07-98.07V98.07c0-54.16-43.91-98.07-98.07-98.07h0Z"/>
  <g>
    <path class="cls-3" d="M855.01,204.28h-23.96c-.33,0-.65.03-.98.08-.76.13-1.53.29-2.29.44-1.41.28-2.75.55-3.97.65-56.86,4.55-108.16,15.44-156.83,33.28-50.27,18.43-90.34,43.75-122.49,77.4-15.75,16.49-32.33,32.79-48.37,48.55-3.6,3.54-7.2,7.08-10.8,10.62-1.29,1.27-3.31,2.35-4.7,2.52-37.55,4.38-72.14,8.21-105.75,11.73-8.27.86-14.65,3.81-20.07,9.27-24.94,25.12-50.41,50.57-75.04,75.18-8.4,8.39-16.79,16.78-25.18,25.17l-.82.8c-.96.94-2.05,2.01-3.05,3.23-4.4,5.36-5.78,12.15-3.69,18.18,2.07,5.99,7.31,10.44,14.01,11.91,2.31.5,4.58.83,6.78,1.15l29.22,4.2c13.48,1.94,26.96,3.88,40.43,5.82.44.06.92.11,1.4.15.11,0,.24.02.37.03,5.17,5.23,10.2,10.5,15.52,16.07.06.07.13.13.19.2-3.16,1.89-6.29,3.77-9.41,5.64-12.18,7.3-23.69,14.2-35.38,21.3-7.96,4.84-10.2,10.6-10.69,14.58-.48,3.97.32,10.07,6.86,16.63,45.63,45.73,92.57,92.67,139.54,139.54,6.45,6.43,12.6,7.21,16.63,6.72,4.05-.49,9.87-2.72,14.64-10.57,5.72-9.42,11.47-19.02,17.02-28.31,3.41-5.69,6.81-11.38,10.23-17.07.02-.04.05-.08.07-.11.2.21.41.43.61.64,4.69,4.95,9.13,9.62,13.43,14.41,1.17,1.3,1.81,2.62,1.91,3.3,3.23,21.34,6.6,44.5,10.6,72.86.5,3.52,2.01,14.24,13.23,17.59,1.88.56,3.64.8,5.3.8,7.83,0,13.17-5.36,15.43-7.62,10.97-11.01,21.96-22,32.95-32.98,22.66-22.66,46.09-46.09,68.97-69.32,4.16-4.23,7.33-10.89,8.07-16.99,2.5-20.66,4.82-41.68,7.06-62.01,1.63-14.78,3.31-30.05,5.05-45.06.19-1.67,1.34-3.95,2.65-5.29,21.49-21.81,43.55-43.81,64.88-65.08l.52-.52c18.74-18.69,34.9-40.53,48.03-64.92,25.88-48.06,42.52-102.51,52.37-171.34,1.41-9.88,2.52-19.92,3.59-29.63.5-4.52.99-9.04,1.52-13.55.03-.22.04-.44.04-.66v-23.96c0-3.13-2.54-5.67-5.67-5.67ZM822.68,242.5c-2.82,32.2-8.18,63.9-15.97,94.47l-78.77-78.82c22.03-6.09,73.19-14.97,94.74-15.64ZM349.76,509.08c-14.23-1.75-28.7-3.87-42.69-5.92-1.38-.2-2.77-.41-4.15-.61,24.46-24.48,49.71-49.75,74.63-74.51,1.37-1.36,2.57-1.94,2.9-2,19.77-2.39,39.39-4.6,60.16-6.93l1.22-.14-8.06,8.06c-26.41,26.43-53.72,53.76-80.7,80.49-.89.88-2.71,1.58-3.31,1.56ZM567.37,650.06l-13.14-13.14c-25.87-25.88-51.46-51.47-77.07-77.04-1.98-1.98-4.33-4.24-7.06-6.04-7.21-4.75-16.77-3.7-22.75,2.49-5.88,6.09-6.79,14.96-2.27,22.06,1.73,2.72,3.86,4.94,6.07,7.15,34.18,34.24,62.51,62.56,89.16,89.13.2.2.4.39.61.58l-9.44,9.07-151.66-151.66c.11-.11.21-.22.32-.33,21.22-21.22,42.44-42.44,63.67-63.66,43.41-43.4,88.3-88.27,132.4-132.46,27.89-27.94,63.87-49.32,109.99-65.38.06.01.12.03.18.05,38.21,38,73.41,73.21,107.59,107.63.04.19.06.43.06.59-16.38,46.86-39.18,84.23-69.7,114.24-36.56,35.95-73.35,72.87-108.92,108.57-15.58,15.64-31.16,31.27-46.77,46.88-.42.42-.85.84-1.28,1.26ZM638.03,686.27c-24.58,24.77-49.68,49.85-73.96,74.1l-1.57,1.57c-1.04-6.9-2.05-13.63-3.04-20.37-.29-1.98-.59-3.95-.89-5.93-.96-6.35-1.96-12.92-2.6-19.34-.13-1.32.19-2.84.47-3.35,28.43-28.73,57.51-57.79,85.64-85.88l3.88-3.88c-.8,7.57-1.58,14.95-2.4,22.32-1.23,11.07-2.76,24.85-4.47,38-.16,1.26-.72,2.41-1.06,2.75ZM476.66,684.53l-18.73,31.23-108.73-108.73,31.22-18.75,96.24,96.24Z"/>
    <path class="cls-3" d="M362.73,728.06c1.99-1.99,4.26-4.35,6.06-7.18,4.45-7.01,3.38-16.1-2.61-22.09-6.02-6.02-15.11-7.09-22.11-2.59-2.88,1.85-5.24,4.12-7.6,6.48-44.44,44.38-81.82,81.75-119.84,119.86-2.86,2.86-5.47,5.91-8,8.86-1.14,1.33-2.28,2.67-3.45,3.98-.92,1.04-1.43,2.38-1.43,3.76v16.39c0,3.13,2.54,5.67,5.67,5.67h16.39c1.33,0,2.61-.46,3.63-1.31.88-.73,1.77-1.44,2.67-2.14,2.1-1.66,4.27-3.38,6.3-5.4,35.99-35.91,74.33-74.24,124.32-124.29Z"/>
    <path class="cls-3" d="M239.66,771.83c3.58,0,7.19-1.07,10.39-3.24,2.35-1.6,4.34-3.52,6.02-5.2,27.97-27.92,50.6-50.55,71.22-71.23,2.3-2.3,4.49-4.61,6.11-7.47,3.11-5.48,3.13-11.91.06-17.19-3.47-5.98-10.32-9.56-18.32-9.59h-.02c-1.14,0-2.26.35-3.21.99-.42.29-.98.62-1.63,1-2.18,1.3-5.48,3.27-8.24,6-20.23,19.99-40.65,40.46-60.4,60.24l-11.8,11.82c-1.56,1.56-3.35,3.41-4.81,5.58-5.1,7.58-4.15,17.17,2.29,23.33,3.43,3.28,7.84,4.95,12.32,4.95Z"/>
    <path class="cls-3" d="M395.84,730.53c-5.1-2.14-12.88-2.99-21,5.12l-8.95,8.93c-21.74,21.71-44.23,44.15-66.26,66.32-8.28,8.32-8.79,19.42-1.26,26.99,3.64,3.65,7.99,5.47,12.46,5.47,4.96,0,10.07-2.23,14.52-6.65,30.18-30,53.37-53.22,75.19-75.31,2.42-2.45,3.9-5.42,5.21-8.04.53-1.06,1.02-2.05,1.54-2.94.69-1.19.93-2.59.67-3.94-1.54-7.95-5.51-13.16-12.12-15.94Z"/>
    <path class="cls-3" d="M619.59,526.86c21.45,0,41.68-8.37,57-23.61,15.5-15.4,24.04-35.87,24.07-57.63.02-21.84-8.38-42.29-23.65-57.59-15.27-15.3-35.71-23.73-57.54-23.73h-.02c-21.73,0-42.15,8.46-57.51,23.82-15.36,15.36-23.83,35.8-23.83,57.54-.01,44.54,36.35,80.97,81.05,81.2.14,0,.29,0,.43,0ZM587.88,476.75c-8.49-8.55-13.29-20.01-13.17-31.44.25-24.43,20.31-44.36,44.7-44.42,24.5-.05,44.48,19.77,44.67,44.23.09,11.92-4.54,23.22-13.05,31.81-8.47,8.56-19.64,13.29-31.47,13.32h-.12c-11.54,0-23.04-4.92-31.56-13.51Z"/>
    <path class="cls-3" d="M424.29,515.15c-9.95.22-17.87,8.54-17.66,18.54.21,9.93,8.12,17.58,18.08,17.58.14,0,.27,0,.41,0,4.79-.1,9.45-2.17,12.79-5.68,3.33-3.5,5.09-8.04,4.96-12.77-.29-9.79-8.79-17.88-18.58-17.66Z"/>
  </g>
</svg>